<?xml version="1.0" standalone="no"?>
<svg viewBox="0 0 200 200" xmlns="http://www.w3.org/2000/svg">
  <path fill="#FC9803" d="M45.7,-77.6C58.9,-71.4,69.3,-58.7,77.9,-44.7C86.5,-30.7,93.2,-15.3,92.5,-0.4C91.8,14.6,83.7,29.1,74.4,41.9C65.1,54.6,54.7,65.6,42.1,70.8C29.5,75.9,14.7,75.4,0.8,74C-13.1,72.6,-26.3,70.4,-39.2,65.4C-52.2,60.4,-64.9,52.6,-73.2,41.3C-81.4,29.9,-85.2,14.9,-84.5,0.4C-83.8,-14.1,-78.6,-28.2,-69.2,-37.8C-59.9,-47.4,-46.6,-52.4,-34.3,-59.2C-22.1,-66,-11.1,-74.5,2.6,-78.9C16.2,-83.3,32.4,-83.7,45.7,-77.6Z" transform="translate(100 100)" />
</svg>
